<svg xmlns="http://www.w3.org/2000/svg" xmlns:xlink="http://www.w3.org/1999/xlink" width="520" zoomAndPan="magnify" viewBox="0 0 390 389.999986" height="520" preserveAspectRatio="xMidYMid meet" version="1.0"><defs><g/></defs><g fill="#ffffff" fill-opacity="1"><g transform="translate(41.622925, 275.871161)"><g><path d="M 27.796875 -158.421875 L 27.796875 -217.40625 L 82.453125 -217.40625 L 82.453125 -158.421875 L 115.8125 -158.421875 L 115.8125 -116.734375 L 82.453125 -116.734375 L 82.453125 -66.390625 C 82.453125 -51.773438 86.570312 -44.46875 94.8125 -44.46875 C 96.863281 -44.46875 99.019531 -44.878906 101.28125 -45.703125 C 103.550781 -46.523438 105.304688 -47.347656 106.546875 -48.171875 L 108.390625 -49.40625 L 121.984375 -5.25 C 110.242188 1.332031 96.859375 4.625 81.828125 4.625 C 71.535156 4.625 62.679688 2.828125 55.265625 -0.765625 C 47.859375 -4.367188 42.25 -9.207031 38.4375 -15.28125 C 34.632812 -21.351562 31.910156 -27.734375 30.265625 -34.421875 C 28.617188 -41.117188 27.796875 -48.273438 27.796875 -55.890625 L 27.796875 -116.734375 L 4.9375 -116.734375 L 4.9375 -158.421875 Z M 27.796875 -158.421875 "/></g></g></g><g fill="#ffffff" fill-opacity="1"><g transform="translate(137.349427, 275.871161)"><g><path d="M 181.578125 -138.796875 C 196.398438 -122.640625 203.8125 -102.828125 203.8125 -79.359375 C 203.8125 -55.890625 196.398438 -36.023438 181.578125 -19.765625 C 166.753906 -3.503906 147.914062 4.625 125.0625 4.625 C 104.0625 4.625 86.769531 -1.957031 73.1875 -15.125 L 73.1875 80.296875 L 18.53125 80.296875 L 18.53125 -158.421875 L 72.578125 -158.421875 L 72.578125 -140.515625 L 73.1875 -140.515625 C 86.769531 -155.535156 104.0625 -163.046875 125.0625 -163.046875 C 147.914062 -163.046875 166.753906 -154.960938 181.578125 -138.796875 Z M 135.109375 -52.5 C 142.210938 -59.5 145.765625 -68.453125 145.765625 -79.359375 C 145.765625 -90.273438 142.363281 -99.179688 135.5625 -106.078125 C 128.769531 -112.972656 119.816406 -116.421875 108.703125 -116.421875 C 97.992188 -116.421875 89.191406 -112.921875 82.296875 -105.921875 C 75.398438 -98.921875 71.953125 -90.066406 71.953125 -79.359375 C 71.953125 -68.453125 75.503906 -59.5 82.609375 -52.5 C 89.710938 -45.5 98.410156 -42 108.703125 -42 C 119.203125 -42 128.003906 -45.5 135.109375 -52.5 Z M 135.109375 -52.5 "/></g></g></g></svg>